# xmcd
#
# Track frame offsets:
#	150
#	15245
#	25755
#	39419
#	52557
#	63594
#	79360
#	92498
#	103666
#	117330
#	130995
#	146761
#	157797
#	172512
#	187228
#	198264
#	210877
#	222439
#	235578
#	248191
#
# Disc length: 3499 seconds
#
# Revision: 1
# Processed by: cddbd v1.5.2PL0 Copyright (c) Steve Scherf et al.
# Submitted via: EZCDAudioConverter 2.3.5.1
#
DISCID=fc0da914
DTITLE=금잔디 - 트롯트 금잔디 3
DYEAR=2011
DGENRE=Trot
TTITLE0=일편단심
TTITLE1=섬마을 처녀
TTITLE2=부초같은 인생
TTITLE3=유리벽 사랑
TTITLE4=남자라 울지 못했다
TTITLE5=여러분
TTITLE6=삼각 관계
TTITLE7=꽃보다 당신
TTITLE8=당신의 트로트
TTITLE9=사랑은 눈물 인가봐
TTITLE10=추억 속으로
TTITLE11=10분내로
TTITLE12=초대
TTITLE13=사나이눈물
TTITLE14=검정 고무신
TTITLE15=조약돌 사랑
TTITLE16=정하나 준것이
TTITLE17=사는동안
TTITLE18=천생연분
TTITLE19=사랑을 몰랐네
EXTD=
EXTT0=
EXTT1=
EXTT2=
EXTT3=
EXTT4=
EXTT5=
EXTT6=
EXTT7=
EXTT8=
EXTT9=
EXTT10=
EXTT11=
EXTT12=
EXTT13=
EXTT14=
EXTT15=
EXTT16=
EXTT17=
EXTT18=
EXTT19=
PLAYORDER=
